<?xml version="1.0" standalone="no"?>
<!DOCTYPE svg PUBLIC "-//W3C//DTD SVG 20010904//EN"
 "http://www.w3.org/TR/2001/REC-SVG-20010904/DTD/svg10.dtd">
<svg version="1.0" xmlns="http://www.w3.org/2000/svg"
 width="512.000000pt" height="512.000000pt" viewBox="0 0 512.000000 512.000000"
 preserveAspectRatio="xMidYMid meet">
<metadata>
Created by potrace 1.11, written by Peter Selinger 2001-2013
</metadata>
<g transform="translate(0.000000,512.000000) scale(0.100000,-0.100000)"
fill="#000000" stroke="none">
<path d="M2210 4727 c0 -4 13 -13 28 -21 48 -25 154 -148 139 -162 -3 -3 -20
2 -37 11 -41 21 -189 21 -270 1 -168 -43 -194 -48 -235 -43 -25 2 -45 3 -45 2
0 -1 25 -15 55 -30 l55 -28 -30 -19 c-17 -10 -35 -18 -40 -18 -6 0 -30 -9 -55
-21 -45 -21 -134 -24 -180 -5 -11 5 -5 -5 15 -22 19 -17 47 -34 63 -37 36 -9
34 -19 -8 -42 -19 -10 -73 -54 -119 -97 -67 -62 -100 -85 -156 -107 -39 -16
-83 -29 -98 -30 l-27 0 25 -10 c14 -6 44 -9 68 -6 23 2 42 2 42 -2 0 -3 -23
-30 -50 -60 -28 -29 -50 -55 -50 -58 0 -2 -13 -21 -29 -41 -32 -40 -64 -93
-82 -132 -6 -14 -14 -32 -19 -40 -11 -24 -33 -121 -28 -126 3 -2 13 17 22 43
10 27 22 55 27 63 5 8 17 32 26 53 24 56 41 48 32 -15 -4 -29 -8 -94 -8 -145
-1 -93 -18 -179 -46 -235 -8 -17 -15 -35 -15 -41 0 -12 -67 -123 -87 -143 -27
-27 -6 -26 36 1 22 15 47 38 56 51 8 13 19 24 23 24 4 0 7 -60 7 -133 0 -91 4
-138 13 -152 12 -18 13 -18 8 -1 -12 37 -19 196 -9 196 10 0 33 -43 33 -61 0
-5 17 -36 39 -68 21 -32 44 -82 51 -110 14 -58 14 -58 24 -16 5 22 4 26 -4 15
-5 -8 -10 -10 -10 -4 0 22 14 23 37 2 13 -12 23 -26 23 -32 0 -14 91 -96 107
-96 7 0 13 -5 13 -10 0 -11 60 -39 80 -37 22 2 47 -25 45 -48 -2 -16 2 -25 11
-25 8 0 14 -7 14 -15 0 -8 4 -15 10 -15 5 0 7 7 4 15 -5 12 4 15 46 15 37 0
50 4 48 13 -7 18 -49 37 -84 37 -32 0 -38 8 -82 103 -9 17 23 4 71 -30 71 -51
96 -65 107 -58 5 3 12 0 16 -6 5 -8 3 -9 -6 -4 -8 5 -11 4 -7 -2 3 -5 16 -9
29 -8 13 1 25 -1 28 -5 3 -3 26 -13 51 -21 l45 -15 -32 61 c-21 39 -34 79 -36
111 l-3 49 60 9 c33 5 123 21 200 35 l140 27 43 -42 c23 -24 42 -45 42 -47 0
-3 -73 -6 -162 -9 -100 -2 -171 -8 -183 -16 -19 -11 -19 -11 -1 -12 18 0 18
-1 -3 -24 -28 -30 -10 -40 32 -19 20 10 32 11 41 4 7 -6 28 -8 48 -5 46 8 56
-9 17 -28 l-30 -15 33 -27 c18 -14 38 -31 45 -36 17 -14 42 -12 78 5 l30 15
-42 -6 c-45 -6 -103 18 -103 43 0 19 17 16 40 -7 26 -26 73 -26 119 2 l36 21
-24 -26 c-26 -28 -23 -34 9 -17 20 11 45 73 37 94 -7 17 77 29 119 17 33 -9
49 -50 62 -165 l8 -71 14 65 15 65 3 -87 c1 -49 6 -88 10 -88 4 0 16 13 25 30
10 16 23 35 30 43 33 36 137 249 137 281 0 30 39 96 56 96 7 0 15 7 18 16 5
13 15 15 40 11 38 -6 57 -22 100 -85 27 -39 28 -47 24 -112 -6 -73 -1 -85 49
-140 27 -29 31 -16 6 20 -15 23 -15 24 0 12 9 -8 21 -11 26 -7 6 3 8 0 5 -9
-7 -17 31 -41 48 -30 7 4 8 3 4 -4 -4 -7 -3 -12 3 -12 5 0 17 -3 26 -6 18 -7
19 -9 -19 63 -20 39 -20 49 -1 33 8 -7 15 -16 15 -21 0 -5 8 -17 18 -27 10
-10 26 -29 35 -43 15 -20 19 -22 28 -9 7 11 8 7 4 -15 l-6 -30 15 30 c8 17 17
42 21 58 7 34 25 36 25 2 0 -14 4 -25 9 -25 5 0 12 39 16 88 6 86 20 158 56
298 11 38 19 94 19 123 0 47 2 52 18 46 22 -10 156 -35 161 -30 4 5 -25 35
-34 35 -10 0 -65 57 -65 68 0 5 -7 15 -15 22 -30 25 -17 35 38 32 30 -2 67 -2
83 0 l29 3 -30 17 c-29 17 -29 17 -6 18 24 0 24 1 -9 25 -61 45 -111 149 -123
253 -5 42 -4 43 16 36 39 -13 159 -16 170 -5 8 8 2 11 -19 11 -18 0 -38 8 -49
20 -10 11 -22 20 -26 20 -8 0 -35 27 -78 77 -8 9 -15 23 -16 32 0 9 -5 23 -10
30 -6 11 -4 13 11 6 10 -4 48 -9 84 -11 45 -3 57 -1 39 5 -59 20 -92 53 -139
145 -8 16 -27 42 -42 59 -16 16 -28 31 -28 33 0 9 -140 144 -149 144 -5 0 -11
6 -14 14 -4 11 9 17 54 25 33 5 68 16 78 23 16 11 7 13 -60 15 -88 3 -115 12
-304 104 -184 89 -214 99 -308 99 -45 0 -97 -4 -115 -9 -17 -5 -32 -6 -32 -2
0 4 19 27 42 49 70 70 20 51 -55 -21 -23 -22 -32 -25 -43 -16 -8 6 -14 17 -14
23 0 23 -86 94 -153 125 -65 31 -137 50 -137 38z m90 -737 c0 -23 -4 -30 -20
-30 -23 0 -35 22 -26 45 3 8 15 15 26 15 16 0 20 -7 20 -30z m1040 -190 c0
-11 -2 -20 -4 -20 -2 0 -11 -3 -19 -6 -15 -5 -31 21 -21 37 11 18 44 10 44
-11z m-82 -63 c4 -34 -23 -48 -43 -21 -9 13 -10 24 -3 37 14 26 42 17 46 -16z
m-330 -29 c34 -34 -7 -79 -45 -50 -16 13 -19 22 -12 40 9 24 38 29 57 10z
m-477 -515 c-12 -20 -14 -14 -5 12 4 9 9 14 11 11 3 -2 0 -13 -6 -23z m-174
-15 c-3 -7 -5 -2 -5 12 0 14 2 19 5 13 2 -7 2 -19 0 -25z m227 -21 c39 6 80
-12 72 -32 -3 -8 -1 -17 5 -20 5 -4 13 4 18 17 7 17 10 4 10 -54 l1 -78 -55 0
c-53 0 -55 1 -55 28 0 15 -9 35 -20 45 -19 16 -20 16 -20 -3 0 -22 -7 -25 -28
-11 -19 12 5 50 35 57 19 5 21 9 12 25 -5 11 -14 17 -20 14 -11 -7 -12 6 -2
32 7 16 8 16 11 -4 3 -18 8 -21 36 -16z m-439 -6 c-6 -5 -25 10 -25 20 0 5 6
4 14 -3 8 -7 12 -15 11 -17z m327 7 c-3 -13 -1 -19 5 -15 6 4 13 -3 17 -16 12
-44 5 -51 -15 -14 -11 22 -18 45 -15 53 8 22 15 16 8 -8z m275 -25 c-3 -10 -5
-2 -5 17 0 19 2 27 5 18 2 -10 2 -26 0 -35z m-820 23 c0 -8 -6 -12 -15 -9 -11
5 -11 7 0 14 7 5 13 9 14 9 0 0 1 -6 1 -14z m364 -16 c5 0 9 -5 9 -11 0 -8 -5
-8 -15 1 -8 7 -14 20 -14 29 1 13 2 13 6 -1 2 -10 9 -18 14 -18z m611 -15 c10
-60 9 -115 -3 -115 -5 0 -7 5 -3 12 4 7 3 8 -5 4 -8 -5 -9 -12 -3 -19 11 -14
14 -79 4 -73 -4 2 -8 -10 -9 -27 -1 -17 -7 -35 -13 -41 -5 -5 -10 -20 -10 -33
0 -13 -4 -23 -8 -23 -4 0 -16 -22 -27 -49 -18 -48 -64 -117 -51 -78 3 10 0 17
-7 17 -8 0 -8 3 2 9 9 6 5 9 -13 9 -14 0 -26 -5 -26 -10 0 -5 4 -6 10 -3 6 4
7 -1 3 -11 -4 -11 -2 -15 4 -11 21 13 22 -24 2 -63 -12 -22 -24 -40 -28 -40
-11 0 -11 89 0 96 5 3 9 10 9 15 0 6 -5 7 -12 3 -8 -5 -9 -2 -5 11 4 9 2 24
-4 31 -10 12 -7 13 12 10 13 -3 24 -5 24 -6 0 -1 8 -3 18 -5 11 -2 17 3 17 14
0 9 5 22 12 29 8 8 11 58 10 166 -1 120 1 155 12 159 8 3 11 16 8 35 -4 28 -2
29 34 28 37 -1 39 -3 46 -41z m58 30 c0 -8 -2 -15 -4 -15 -2 0 -6 7 -10 15 -3
8 -1 15 4 15 6 0 10 -7 10 -15z m-583 -25 c-3 -11 0 -20 6 -20 6 0 8 -3 4 -6
-3 -3 -14 -1 -24 5 -10 6 -12 11 -5 11 6 0 12 7 12 15 0 8 3 15 6 15 4 0 4 -9
1 -20z m414 -3 c-10 -9 -11 -8 -5 6 3 10 9 15 12 12 3 -3 0 -11 -7 -18z m-577
-23 c3 -8 2 -12 -4 -9 -6 3 -10 10 -10 16 0 14 7 11 14 -7z m554 -50 c0 -25
-2 -43 -4 -42 -7 7 -21 87 -16 92 12 13 21 -8 20 -50z m-444 20 c3 -8 2 -12
-4 -9 -6 3 -10 10 -10 16 0 14 7 11 14 -7z m81 6 c3 -5 2 -10 -4 -10 -5 0 -13
5 -16 10 -3 6 -2 10 4 10 5 0 13 -4 16 -10z m-421 -24 c-5 -14 48 -56 106 -86
21 -10 20 -8 -7 18 -37 35 -42 48 -13 32 11 -6 25 -8 30 -5 5 3 7 -1 4 -9 -6
-16 47 -33 67 -20 8 4 9 3 5 -4 -5 -8 0 -12 13 -12 11 0 22 -4 25 -9 3 -4 -25
-11 -62 -14 -37 -3 -94 -15 -126 -26 -33 -12 -61 -19 -64 -16 -3 2 -5 37 -5
76 0 50 5 74 14 80 19 12 19 11 13 -5z m-273 -47 c-5 -13 -10 -19 -10 -12 -1
15 10 45 15 40 3 -2 0 -15 -5 -28z m55 -55 c-4 -9 -9 -15 -11 -12 -3 3 -3 13
1 22 4 9 9 15 11 12 3 -3 3 -13 -1 -22z m926 -71 c3 -54 2 -102 -1 -108 -3 -5
-11 -30 -17 -55 l-12 -45 -1 50 c-1 28 -9 68 -18 90 -8 22 -16 56 -17 75 0 19
-7 41 -13 48 -26 27 -15 42 31 42 l44 0 4 -97z m-882 37 c0 -10 5 -22 10 -25
6 -4 8 -11 4 -16 -3 -5 -10 -7 -15 -4 -5 4 -9 1 -9 -5 0 -6 -5 -8 -10 -5 -6 4
-8 10 -5 15 3 5 -3 15 -15 22 -26 16 -26 28 0 21 14 -4 20 0 20 11 0 10 5 14
10 11 6 -3 10 -15 10 -25z m651 -1 c5 -11 14 -19 19 -19 5 0 21 -11 36 -25 24
-22 25 -25 7 -25 -18 0 -37 17 -88 78 -17 20 -17 22 -2 16 10 -3 22 -15 28
-25z m-881 7 c0 -3 -4 -8 -10 -11 -5 -3 -10 -1 -10 4 0 6 5 11 10 11 6 0 10
-2 10 -4z m281 -93 c13 -21 28 -44 33 -52 13 -21 -16 -2 -32 21 -7 10 -20 18
-28 18 -8 0 -13 4 -9 9 3 5 1 12 -5 16 -11 7 -4 25 10 25 4 0 19 -17 31 -37z
m576 -46 c11 4 14 2 11 -8 -3 -8 -12 -15 -21 -17 -12 -3 -17 3 -16 20 0 13 3
18 5 11 3 -7 12 -9 21 -6z m-490 -53 c-3 -3 -12 -4 -19 -1 -8 3 -5 6 6 6 11 1
17 -2 13 -5z m-177 -44 c0 -5 -4 -10 -10 -10 -5 0 -10 5 -10 10 0 6 5 10 10
10 6 0 10 -4 10 -10z"/>
<path d="M2507 3113 c-4 -3 -7 -11 -7 -17 0 -6 5 -5 12 2 6 6 9 14 7 17 -3 3
-9 2 -12 -2z"/>
<path d="M2811 3084 c0 -11 3 -14 6 -6 3 7 2 16 -1 19 -3 4 -6 -2 -5 -13z"/>
<path d="M2642 2649 c2 -6 8 -10 13 -10 5 0 11 4 13 10 2 6 -4 11 -13 11 -9 0
-15 -5 -13 -11z"/>
<path d="M2926 2873 c-6 -14 -5 -15 5 -6 7 7 10 15 7 18 -3 3 -9 -2 -12 -12z"/>
<path d="M2992 2780 c0 -14 2 -19 5 -12 2 6 2 18 0 25 -3 6 -5 1 -5 -13z"/>
<path d="M2971 2754 c0 -11 3 -14 6 -6 3 7 2 16 -1 19 -3 4 -6 -2 -5 -13z"/>
<path d="M2961 2721 c-1 -7 -12 -24 -27 -37 -14 -13 -19 -24 -12 -24 17 1 51
48 45 63 -4 8 -6 8 -6 -2z"/>
<path d="M1589 2603 c-13 -16 -12 -17 4 -4 9 7 17 15 17 17 0 8 -8 3 -21 -13z"/>
<path d="M2961 2597 c-13 -21 -12 -21 5 -5 10 10 16 20 13 22 -3 3 -11 -5 -18
-17z"/>
<path d="M1526 2525 c-9 -14 -13 -25 -8 -25 5 0 14 11 20 25 6 14 10 25 8 25
-2 0 -11 -11 -20 -25z"/>
<path d="M1801 2524 c0 -11 3 -14 6 -6 3 7 2 16 -1 19 -3 4 -6 -2 -5 -13z"/>
<path d="M3341 2495 c0 -5 6 -21 14 -35 8 -14 14 -20 14 -15 0 6 -6 21 -14 35
-8 14 -14 21 -14 15z"/>
<path d="M1469 2463 c-13 -16 -12 -17 4 -4 9 7 17 15 17 17 0 8 -8 3 -21 -13z"/>
<path d="M1772 2395 c0 -16 2 -22 5 -12 2 9 2 23 0 30 -3 6 -5 -1 -5 -18z"/>
<path d="M3386 2358 c13 -45 32 -83 33 -67 1 19 -26 89 -35 89 -3 0 -2 -10 2
-22z"/>
<path d="M1391 2313 c-10 -26 -10 -27 4 -9 8 11 15 23 15 28 0 15 -7 8 -19
-19z"/>
<path d="M1861 2280 c0 -29 1 -32 10 -17 7 11 7 23 0 35 -9 14 -10 11 -10 -18z"/>
<path d="M3420 2263 c0 -5 6 -19 13 -33 7 -14 21 -46 31 -72 10 -26 21 -50 26
-53 8 -5 -12 50 -47 133 -13 30 -23 41 -23 25z"/>
<path d="M1845 2222 c-5 -4 -26 -29 -45 -57 -19 -27 -27 -44 -18 -37 14 11 16
9 16 -23 0 -19 -4 -38 -9 -41 -5 -3 -9 -9 -9 -15 0 -5 8 -1 18 8 12 13 16 30
14 58 -3 30 3 49 22 78 26 39 28 42 11 29z"/>
<path d="M2509 2113 c-13 -16 -12 -17 4 -4 16 13 21 21 13 21 -2 0 -10 -8 -17
-17z"/>
<path d="M2454 2078 l-19 -23 25 20 c14 11 27 21 29 22 2 2 0 3 -6 3 -5 0 -18
-10 -29 -22z"/>
<path d="M3500 2075 c0 -5 10 -21 21 -35 13 -17 17 -18 10 -5 -17 33 -31 51
-31 40z"/>
<path d="M1636 2025 c-13 -27 -31 -49 -54 -61 -19 -10 -29 -20 -23 -22 19 -6
59 26 83 68 13 22 30 41 38 43 10 2 9 4 -5 8 -17 5 -24 -2 -39 -36z"/>
<path d="M2110 2030 c6 -11 13 -20 16 -20 2 0 0 9 -6 20 -6 11 -13 20 -16 20
-2 0 0 -9 6 -20z"/>
<path d="M1454 2002 c4 -7 18 -12 31 -12 13 0 25 -4 27 -9 2 -5 14 -3 28 4
l25 14 -35 1 c-19 0 -46 3 -59 7 -17 4 -22 3 -17 -5z"/>
<path d="M3540 2003 c0 -6 8 -17 18 -24 16 -13 16 -13 2 6 -8 11 -16 22 -17
24 -2 2 -3 0 -3 -6z"/>
<path d="M1719 1953 c-13 -16 -12 -17 4 -4 9 7 17 15 17 17 0 8 -8 3 -21 -13z"/>
<path d="M1462 1920 c-9 -24 -138 -150 -153 -150 -4 0 -10 -7 -13 -16 -8 -21
48 18 96 68 21 21 42 38 48 38 13 0 42 58 37 73 -3 7 -9 1 -15 -13z"/>
<path d="M1660 1908 c-19 -16 -57 -41 -83 -54 -27 -14 -46 -28 -43 -31 6 -6
152 82 162 98 13 21 -2 16 -36 -13z"/>
<path d="M3586 1927 c3 -10 9 -15 12 -12 3 3 0 11 -7 18 -10 9 -11 8 -5 -6z"/>
<path d="M3632 1846 c6 -14 15 -26 20 -26 10 0 -7 36 -22 45 -6 4 -5 -5 2 -19z"/>
<path d="M1060 1809 c0 -5 5 -7 10 -4 6 3 10 8 10 11 0 2 -4 4 -10 4 -5 0 -10
-5 -10 -11z"/>
<path d="M1460 1800 c-8 -5 -10 -10 -5 -10 6 0 17 5 25 10 8 5 11 10 5 10 -5
0 -17 -5 -25 -10z"/>
<path d="M3660 1796 c0 -8 7 -16 15 -20 13 -4 14 -2 5 14 -13 23 -20 26 -20 6z"/>
<path d="M1036 1749 c-11 -22 -15 -55 -14 -103 l1 -71 6 75 c4 41 12 86 19 98
8 13 11 26 9 28 -3 3 -12 -9 -21 -27z"/>
<path d="M3584 1740 c-33 -4 -72 -14 -85 -23 -13 -10 -31 -17 -40 -17 -9 0
-24 -9 -34 -20 -10 -11 -23 -20 -28 -20 -6 0 -19 -7 -29 -17 -10 -9 -27 -21
-37 -27 -97 -56 -147 -81 -159 -78 -7 2 -41 -5 -75 -16 -76 -24 -149 -43 -202
-52 l-40 -7 40 -2 c38 -1 140 23 233 56 24 8 45 13 48 10 5 -5 -81 -67 -94
-67 -4 0 -18 -9 -32 -20 -20 -16 -22 -20 -7 -20 9 0 17 4 17 9 0 5 17 16 38
25 20 9 57 30 82 46 25 16 54 34 65 40 11 5 36 20 56 32 20 13 55 34 78 47 22
14 41 28 41 33 0 4 5 8 11 8 6 0 23 8 37 18 46 32 142 55 257 62 l110 7 -95 0
c-52 0 -122 -3 -156 -7z"/>
<path d="M1245 1730 c-13 -6 -15 -9 -5 -9 8 0 22 4 30 9 18 12 2 12 -25 0z"/>
<path d="M3882 1715 c6 -14 13 -23 16 -21 7 7 -9 46 -18 46 -5 0 -4 -11 2 -25z"/>
<path d="M1442 1698 c-1 -20 -7 -38 -13 -40 -7 -2 -10 -11 -7 -18 8 -26 30 28
25 63 -4 32 -4 32 -5 -5z"/>
<path d="M3900 1675 c0 -12 43 -95 47 -91 4 4 -37 96 -43 96 -2 0 -4 -2 -4 -5z"/>
<path d="M2455 1610 c-27 -21 -58 -46 -67 -54 -10 -9 -24 -16 -31 -16 -7 0
-17 -4 -23 -10 -5 -5 -61 -23 -124 -39 -69 -17 -102 -29 -83 -30 17 -1 60 8
95 19 34 11 72 20 83 20 17 0 46 17 129 72 10 7 31 25 48 40 22 20 42 28 81
31 l52 3 -55 2 c-50 1 -60 -2 -105 -38z"/>
<path d="M1401 1607 c-6 -8 -13 -29 -17 -48 -5 -33 -5 -33 15 10 22 45 23 62
2 38z"/>
<path d="M3995 1520 c10 -11 20 -20 23 -20 3 0 -3 9 -13 20 -10 11 -20 20 -23
20 -3 0 3 -9 13 -20z"/>
<path d="M2437 1480 c-14 -21 -15 -26 -1 -52 9 -17 18 -28 21 -25 3 3 0 14 -5
23 -7 12 -7 25 -1 37 16 29 4 43 -14 17z"/>
<path d="M4035 1470 c10 -11 20 -20 23 -20 3 0 -3 9 -13 20 -10 11 -20 20 -23
20 -3 0 3 -9 13 -20z"/>
<path d="M1985 1440 c-27 -10 -57 -19 -66 -19 -20 -1 -126 -103 -140 -134 -5
-12 -25 -47 -44 -77 -37 -60 -46 -90 -15 -50 11 14 20 28 20 32 0 10 63 102
72 106 4 2 8 9 8 16 0 13 51 66 64 66 4 0 14 7 22 15 9 8 27 18 42 21 15 3 54
14 87 24 43 13 52 18 30 18 -16 0 -52 -9 -80 -18z"/>
<path d="M4075 1420 c10 -11 20 -20 23 -20 3 0 -3 9 -13 20 -10 11 -20 20 -23
20 -3 0 3 -9 13 -20z"/>
<path d="M2960 1401 c-34 -12 -40 -16 -23 -19 20 -3 83 22 83 33 0 7 -8 5 -60
-14z"/>
<path d="M2460 1384 c0 -5 15 -25 34 -43 33 -32 38 -33 103 -32 37 1 93 8 123
16 l55 15 -60 -5 c-33 -3 -90 -8 -126 -11 l-65 -7 -32 39 c-18 21 -32 34 -32
28z"/>
<path d="M2830 1360 c-35 -15 -39 -19 -20 -19 14 0 43 9 65 19 53 24 15 24
-45 0z"/>
<path d="M4126 1352 c10 -19 25 -39 33 -45 9 -8 8 0 -5 21 -10 19 -25 39 -33
45 -9 8 -8 0 5 -21z"/>
<path d="M1383 1265 c0 -44 2 -61 4 -37 2 23 2 59 0 80 -2 20 -4 1 -4 -43z"/>
<path d="M4210 1255 c0 -5 5 -17 10 -25 5 -8 10 -10 10 -5 0 6 -5 17 -10 25
-5 8 -10 11 -10 5z"/>
<path d="M4288 1144 c12 -23 28 -44 37 -47 8 -4 15 -13 15 -22 0 -8 4 -15 9
-15 6 0 20 -18 32 -40 13 -22 27 -40 32 -40 5 0 2 10 -7 23 -9 12 -19 28 -23
36 -3 7 -23 32 -44 55 -22 22 -39 46 -39 52 0 6 -7 18 -16 25 -13 11 -12 5 4
-27z"/>
<path d="M1392 1120 c0 -30 6 -107 13 -170 l14 -115 -5 105 c-4 58 -9 134 -14
170 l-7 65 -1 -55z"/>
<path d="M1680 1107 c-36 -56 -100 -201 -100 -226 0 -14 21 27 36 73 9 26 32
75 50 109 33 58 43 89 14 44z"/>
<path d="M961 934 c0 -11 3 -14 6 -6 3 7 2 16 -1 19 -3 4 -6 -2 -5 -13z"/>
<path d="M952 865 c0 -16 2 -22 5 -12 2 9 2 23 0 30 -3 6 -5 -1 -5 -18z"/>
<path d="M1557 828 c-10 -17 -16 -32 -14 -35 6 -6 39 47 35 57 -2 5 -11 -4
-21 -22z"/>
<path d="M942 800 c0 -19 2 -27 5 -17 2 9 2 25 0 35 -3 9 -5 1 -5 -18z"/>
<path d="M1424 615 c1 -134 7 -233 19 -300 9 -55 22 -138 28 -185 15 -104 31
-159 25 -85 -4 50 -26 211 -47 355 -7 41 -15 152 -19 245 l-7 170 1 -200z"/>
<path d="M1516 755 c-9 -13 -16 -30 -16 -37 0 -14 23 17 33 45 9 24 2 21 -17
-8z"/>
<path d="M3566 743 c-6 -14 -5 -15 5 -6 7 7 10 15 7 18 -3 3 -9 -2 -12 -12z"/>
<path d="M3546 703 c-6 -14 -5 -15 5 -6 7 7 10 15 7 18 -3 3 -9 -2 -12 -12z"/>
<path d="M1476 676 c-23 -36 -20 -44 5 -12 12 15 19 29 16 32 -2 2 -12 -7 -21
-20z"/>
<path d="M932 655 c0 -16 2 -22 5 -12 2 9 2 23 0 30 -3 6 -5 -1 -5 -18z"/>
<path d="M3526 643 c-6 -14 -5 -15 5 -6 7 7 10 15 7 18 -3 3 -9 -2 -12 -12z"/>
<path d="M3507 613 c-4 -3 -7 -13 -7 -22 1 -13 3 -13 11 2 11 19 8 33 -4 20z"/>
<path d="M910 530 c-7 -44 -11 -83 -8 -85 2 -3 10 31 17 76 8 44 11 82 9 85
-3 3 -11 -32 -18 -76z"/>
<path d="M4502 580 c0 -14 2 -19 5 -12 2 6 2 18 0 25 -3 6 -5 1 -5 -13z"/>
<path d="M3475 520 c-10 -22 -16 -43 -13 -46 3 -2 13 14 22 37 22 54 15 61 -9
9z"/>
<path d="M4512 530 c0 -14 2 -19 5 -12 2 6 2 18 0 25 -3 6 -5 1 -5 -13z"/>
<path d="M4527 455 c3 -27 7 -52 9 -54 7 -8 2 54 -6 79 -6 17 -7 9 -3 -25z"/>
<path d="M3435 415 c-10 -25 -15 -48 -13 -51 3 -3 14 15 23 41 10 25 15 48 13
51 -3 3 -14 -15 -23 -41z"/>
<path d="M892 350 c0 -19 2 -27 5 -17 2 9 2 25 0 35 -3 9 -5 1 -5 -18z"/>
<path d="M1694 195 c0 -94 2 -133 3 -88 2 45 2 122 0 170 -1 48 -3 12 -3 -82z"/>
<path d="M4542 335 c-1 -11 5 -63 12 -115 10 -64 14 -80 14 -50 1 44 -25 205
-26 165z"/>
<path d="M3395 290 c-9 -28 -15 -54 -12 -56 3 -3 13 18 22 46 9 28 15 54 12
56 -3 3 -13 -18 -22 -46z"/>
<path d="M883 265 c0 -22 2 -30 4 -17 2 12 2 30 0 40 -3 9 -5 -1 -4 -23z"/>
<path d="M872 190 c0 -19 2 -27 5 -17 2 9 2 25 0 35 -3 9 -5 1 -5 -18z"/>
<path d="M3355 150 c-10 -33 -16 -62 -13 -65 3 -3 13 22 23 55 10 33 16 62 13
65 -3 3 -13 -22 -23 -55z"/>
<path d="M862 130 c0 -14 2 -19 5 -12 2 6 2 18 0 25 -3 6 -5 1 -5 -13z"/>
<path d="M4573 80 c0 -25 2 -35 4 -22 2 12 2 32 0 45 -2 12 -4 2 -4 -23z"/>
<path d="M3327 20 c-3 -11 -1 -20 4 -20 5 0 9 9 9 20 0 11 -2 20 -4 20 -2 0
-6 -9 -9 -20z"/>
</g>
</svg>
